fd_9_states
version=1
nRows=39
nColumns=17
inDegrees=yes

# SIMM Motion File Header:
name fd_9_states
datacolumns 17
datarows 39
otherdata 1
range 0.030000 0.049922
endheader
time	/jointset/r_shoulder/r_shoulder_elev/value	/jointset/r_shoulder/r_shoulder_elev/speed	/jointset/r_elbow/r_elbow_flex/value	/jointset/r_elbow/r_elbow_flex/speed	/forceset/TRIlong/activation	/forceset/TRIlong/fiber_length	/forceset/TRIlat/activation	/forceset/TRIlat/fiber_length	/forceset/TRImed/activation	/forceset/TRImed/fiber_length	/forceset/BIClong/activation	/forceset/BIClong/fiber_length	/forceset/BICshort/activation	/forceset/BICshort/fiber_length	/forceset/BRA/activation	/forceset/BRA/fiber_length
      0.030000	      0.000000	      0.000000	     21.823504	    388.392104	      0.041079	      0.144421	      0.020000	      0.078771	      0.020000	      0.073799	      0.020000	      0.143187	      0.117280	      0.141610	      0.234941	      0.087720
      0.030105	     -0.000000	     -0.000132	     21.864196	    388.354494	      0.041060	      0.144438	      0.020000	      0.078786	      0.020000	      0.073819	      0.020000	      0.143173	      0.118090	      0.141596	      0.235051	      0.087710
      0.030210	     -0.000000	     -0.000136	     21.904884	    388.316446	      0.041038	      0.144454	      0.020000	      0.078801	      0.020000	      0.073836	      0.020000	      0.143159	      0.119046	      0.141581	      0.235185	      0.087701
      0.030733	      0.000000	      0.002265	     22.108263	    388.118496	      0.040928	      0.144539	      0.020000	      0.078883	      0.020000	      0.073922	      0.020000	      0.143088	      0.123587	      0.141505	      0.235828	      0.087653
      0.031250	      0.000003	      0.006931	     22.308883	    387.915725	      0.040820	      0.144622	      0.020000	      0.078967	      0.020000	      0.074000	      0.020000	      0.143018	      0.127702	      0.141427	      0.236425	      0.087605
      0.031885	      0.000010	      0.017209	     22.555038	    387.652792	      0.040689	      0.144725	      0.020000	      0.079064	      0.020000	      0.074126	      0.020000	      0.142931	      0.132307	      0.141328	      0.237109	      0.087547
      0.032520	      0.000022	      0.022905	     22.801030	    387.402689	      0.040559	      0.144827	      0.020000	      0.079181	      0.020000	      0.074199	      0.020000	      0.142844	      0.136473	      0.141225	      0.237743	      0.087488
      0.033084	      0.000037	      0.032079	     23.019344	    387.168066	      0.040444	      0.144918	      0.020000	      0.079254	      0.020000	      0.074319	      0.020000	      0.142766	      0.139843	      0.141132	      0.238268	      0.087437
      0.033647	      0.000056	      0.037182	     23.237530	    386.945000	      0.040330	      0.145009	      0.020000	      0.079353	      0.020000	      0.074379	      0.020000	      0.142688	      0.142934	      0.141038	      0.238759	      0.087385
      0.034204	      0.000079	      0.046291	     23.452919	    386.712343	      0.040219	      0.145099	      0.020000	      0.079432	      0.020000	      0.074478	      0.020000	      0.142611	      0.145740	      0.140943	      0.239213	      0.087333
      0.034647	      0.000101	      0.052730	     23.624217	    386.529325	      0.040131	      0.145170	      0.020000	      0.079506	      0.020000	      0.074538	      0.020000	      0.142549	      0.147812	      0.140867	      0.239554	      0.087293
      0.035292	      0.000138	      0.063478	     23.873151	    386.258711	      0.040004	      0.145274	      0.020000	      0.079604	      0.020000	      0.074649	      0.020000	      0.142458	      0.150593	      0.140756	      0.240018	      0.087234
      0.035715	      0.000166	      0.068831	     24.036506	    386.085749	      0.039921	      0.145342	      0.020000	      0.079674	      0.020000	      0.074706	      0.020000	      0.142399	      0.152281	      0.140683	      0.240305	      0.087195
      0.036391	      0.000216	      0.078500	     24.297713	    385.805290	      0.039790	      0.145451	      0.020000	      0.079778	      0.020000	      0.074819	      0.020000	      0.142303	      0.154775	      0.140565	      0.240735	      0.087133
      0.036872	      0.000255	      0.084078	     24.483093	    385.609532	      0.039698	      0.145528	      0.020000	      0.079859	      0.020000	      0.074888	      0.020000	      0.142234	      0.156405	      0.140481	      0.241020	      0.087089
      0.037533	      0.000313	      0.092466	     24.737724	    385.337809	      0.039572	      0.145634	      0.020000	      0.079957	      0.020000	      0.075015	      0.020000	      0.142140	      0.158470	      0.140366	      0.241386	      0.087029
      0.038114	      0.000367	      0.095445	     24.961588	    385.111149	      0.039462	      0.145727	      0.020000	      0.080067	      0.020000	      0.075082	      0.020000	      0.142056	      0.160133	      0.140264	      0.241686	      0.086977
      0.038883	      0.000442	      0.101042	     25.257825	    384.805279	      0.039318	      0.145851	      0.020000	      0.080176	      0.020000	      0.075298	      0.020000	      0.141945	      0.162136	      0.140130	      0.242053	      0.086907
      0.039450	      0.000491	      0.076705	     25.475782	    384.663235	      0.039213	      0.145941	      0.020000	      0.080261	      0.020000	      0.075319	      0.020000	      0.141862	      0.163480	      0.140031	      0.242303	      0.086856
      0.040016	      0.000535	      0.078169	     25.693634	    384.444676	      0.039107	      0.146032	      0.020000	      0.080357	      0.020000	      0.075381	      0.020142	      0.141780	      0.164766	      0.139932	      0.242503	      0.086805
      0.040145	      0.000545	      0.079331	     25.743196	    384.392416	      0.039074	      0.146053	      0.020000	      0.080375	      0.020000	      0.075403	      0.020859	      0.141761	      0.165259	      0.139909	      0.242481	      0.086793
      0.040339	      0.000560	      0.081283	     25.817743	    384.313204	      0.039022	      0.146084	      0.020000	      0.080404	      0.020000	      0.075434	      0.022059	      0.141731	      0.166033	      0.139876	      0.242440	      0.086776
      0.041192	      0.000633	      0.088733	     26.145563	    383.969143	      0.038797	      0.146221	      0.020000	      0.080532	      0.020000	      0.075575	      0.026811	      0.141594	      0.169200	      0.139725	      0.242260	      0.086699
      0.041767	      0.000685	      0.092720	     26.366127	    383.741977	      0.038647	      0.146314	      0.020000	      0.080651	      0.020000	      0.075655	      0.029583	      0.141500	      0.171129	      0.139624	      0.242141	      0.086648
      0.042342	      0.000738	      0.092736	     26.586566	    383.527824	      0.038498	      0.146406	      0.020000	      0.080717	      0.020000	      0.075765	      0.032059	      0.141406	      0.172911	      0.139522	      0.242024	      0.086597
      0.042916	      0.000791	      0.091915	     26.806880	    383.317383	      0.038351	      0.146498	      0.020000	      0.080812	      0.020000	      0.075835	      0.034275	      0.141311	      0.174557	      0.139420	      0.241908	      0.086546
      0.043491	      0.000844	      0.094546	     27.027072	    383.097909	      0.038204	      0.146590	      0.020000	      0.080897	      0.020000	      0.075945	      0.036260	      0.141217	      0.176078	      0.139317	      0.241793	      0.086495
      0.044065	      0.000898	      0.093120	     27.247141	    382.891433	      0.038059	      0.146682	      0.020000	      0.080995	      0.020000	      0.076015	      0.038040	      0.141123	      0.177486	      0.139215	      0.241680	      0.086444
      0.044640	      0.000952	      0.094614	     27.467090	    382.677258	      0.037915	      0.146774	      0.020000	      0.081077	      0.020000	      0.076124	      0.039639	      0.141029	      0.178788	      0.139112	      0.241568	      0.086394
      0.045167	      0.001001	      0.093549	     27.668573	    382.488849	      0.037784	      0.146858	      0.020000	      0.081165	      0.020000	      0.076188	      0.040962	      0.140943	      0.179896	      0.139019	      0.241467	      0.086347
      0.045848	      0.001066	      0.095965	     27.929233	    382.234600	      0.037617	      0.146967	      0.020000	      0.081265	      0.020000	      0.076322	      0.042494	      0.140831	      0.181220	      0.138897	      0.241338	      0.086287
      0.046530	      0.001130	      0.095304	     28.189725	    381.990211	      0.037450	      0.147076	      0.020000	      0.081410	      0.020000	      0.076398	      0.043846	      0.140720	      0.182428	      0.138775	      0.241210	      0.086228
      0.047015	      0.001175	      0.092599	     28.375026	    381.823252	      0.037333	      0.147153	      0.020000	      0.081455	      0.020000	      0.076488	      0.044711	      0.140641	      0.183224	      0.138689	      0.241121	      0.086185
      0.047500	      0.001220	      0.093964	     28.560241	    381.644492	      0.037216	      0.147231	      0.020000	      0.081526	      0.020000	      0.076552	      0.045504	      0.140562	      0.183971	      0.138602	      0.241032	      0.086143
      0.047986	      0.001267	      0.099393	     28.745366	    381.453874	      0.037101	      0.147308	      0.020000	      0.081603	      0.020000	      0.076630	      0.046230	      0.140483	      0.184671	      0.138516	      0.240945	      0.086101
      0.048609	      0.001331	      0.105990	     28.982934	    381.210333	      0.036954	      0.147407	      0.020000	      0.081699	      0.020000	      0.076723	      0.047074	      0.140382	      0.185508	      0.138405	      0.240833	      0.086046
      0.049100	      0.001385	      0.114315	     29.170007	    381.009214	      0.036838	      0.147485	      0.020000	      0.081777	      0.020000	      0.076808	      0.047677	      0.140302	      0.186120	      0.138317	      0.240747	      0.086004
      0.049590	      0.001443	      0.121464	     29.356980	    380.811512	      0.036724	      0.147563	      0.020000	      0.081853	      0.020000	      0.076877	      0.048228	      0.140222	      0.186694	      0.138230	      0.240661	      0.085961
      0.049922	      0.001484	      0.128199	     29.483271	    380.672214	      0.036647	      0.147615	      0.020000	      0.081904	      0.020000	      0.076930	      0.048575	      0.140168	      0.187062	      0.138171	      0.240604	      0.085932
